<svg width="167" height="32" viewBox="0 0 167 32" fill="none" xmlns="http://www.w3.org/2000/svg">
<path d="M14.0862 0.860809H28.4072L14.321 21.5206H0L14.0862 0.860809Z" fill="#1DA0FF"/>
<path d="M21.4068 10.3299H35.2938L21.6345 31.8505H7.74744L21.4068 10.3299Z" fill="#1DA0FF"/>
<path d="M10.7603 27.116L14.2036 21.5206H24.1031L10.7603 27.116Z" fill="#0364FF"/>
<path d="M55.1447 5.08932C54.4544 4.71415 53.7476 4.40422 53.0244 4.15954C52.3176 3.91486 51.652 3.79252 51.0274 3.79252C50.2548 3.79252 49.6467 3.94749 49.2029 4.25741C48.7591 4.56734 48.5372 5.03223 48.5372 5.65208C48.5372 6.07619 48.7016 6.45952 49.0303 6.80207C49.3755 7.12831 49.811 7.42193 50.337 7.68292C50.8794 7.94391 51.4383 8.18043 52.0136 8.39249C52.5395 8.58823 53.0573 8.82475 53.5668 9.10205C54.0928 9.36304 54.5612 9.69744 54.9722 10.1052C55.3831 10.4967 55.7118 10.9942 55.9584 11.5978C56.2049 12.185 56.3282 12.9109 56.3282 13.7754C56.3282 14.6889 56.0899 15.5371 55.6132 16.3201C55.1365 17.1031 54.438 17.7392 53.5175 18.2286C52.5971 18.7016 51.4629 18.9381 50.1151 18.9381C49.4248 18.9381 48.718 18.8729 47.9948 18.7424C47.288 18.5956 46.5895 18.3835 45.8991 18.1062C45.2088 17.8126 44.5431 17.4456 43.9021 17.0052L45.48 14.2403C45.9073 14.5502 46.3676 14.8275 46.8607 15.0722C47.3702 15.3006 47.8797 15.48 48.3893 15.6105C48.8988 15.741 49.3673 15.8063 49.7946 15.8063C50.222 15.8063 50.6493 15.7492 51.0767 15.635C51.5205 15.5045 51.8821 15.2924 52.1615 14.9988C52.4574 14.7052 52.6053 14.2974 52.6053 13.7754C52.6053 13.4166 52.482 13.0903 52.2355 12.7967C52.0053 12.5031 51.6848 12.2339 51.2739 11.9893C50.8794 11.7446 50.4439 11.5325 49.9672 11.3531C49.4084 11.141 48.8331 10.8964 48.2413 10.6191C47.6496 10.3418 47.0908 10.0074 46.5648 9.61588C46.0553 9.20808 45.6361 8.71057 45.3074 8.12334C44.9951 7.5198 44.839 6.78576 44.839 5.92123C44.839 4.87727 45.0691 3.97195 45.5293 3.20529C46.006 2.43863 46.6716 1.83509 47.5264 1.39467C48.3811 0.937935 49.3673 0.685101 50.485 0.636166C51.9478 0.636166 53.1313 0.807441 54.0353 1.14999C54.9557 1.49254 55.7776 1.90034 56.5008 2.37338L55.1447 5.08932Z" fill="#0364FF"/>
<path d="M57.783 18.7424L65.9685 0.0244676H66.1657L74.3512 18.7424H70.2091L64.9823 5.57868L67.5711 3.81699L61.3087 18.7424H57.783ZM63.3797 12.2339H68.8285L70.0859 15.219H62.2702L63.3797 12.2339Z" fill="#0364FF"/>
<path d="M76.9964 18.7424V0H77.021L87.1049 14.1914L85.5763 13.8488L95.6356 0H95.6849V18.7424H92.1099V8.001L92.3318 9.83609L86.1927 18.4977H86.1434L79.8317 9.83609L80.4481 8.14781V18.7424H76.9964Z" fill="#0364FF"/>
<path d="M98.3289 18.7424L106.514 0.0244676H106.712L114.897 18.7424H110.755L105.528 5.57868L108.117 3.81699L101.855 18.7424H98.3289ZM103.926 12.2339H109.374L110.632 15.219H102.816L103.926 12.2339Z" fill="#0364FF"/>
<path d="M131.515 16.9318C131.301 17.1601 130.964 17.3967 130.504 17.6413C130.044 17.8697 129.51 18.0818 128.902 18.2775C128.31 18.4733 127.702 18.6282 127.077 18.7424C126.452 18.8729 125.861 18.9381 125.302 18.9381C123.823 18.9381 122.491 18.7261 121.308 18.302C120.124 17.8616 119.113 17.258 118.275 16.4914C117.437 15.7084 116.796 14.7868 116.352 13.7265C115.908 12.6662 115.686 11.5081 115.686 10.252C115.686 8.60454 115.933 7.17725 116.426 5.97016C116.936 4.74677 117.618 3.73543 118.472 2.93615C119.344 2.12055 120.338 1.51701 121.456 1.12552C122.59 0.734037 123.773 0.538294 125.006 0.538294C126.173 0.538294 127.241 0.668789 128.211 0.929779C129.181 1.17446 130.003 1.48438 130.677 1.85956L129.518 5.16272C129.222 4.99961 128.828 4.83649 128.334 4.67337C127.841 4.51025 127.34 4.37975 126.83 4.28188C126.321 4.1677 125.869 4.1106 125.474 4.1106C124.488 4.1106 123.617 4.23294 122.861 4.47762C122.105 4.7223 121.464 5.08932 120.938 5.57868C120.428 6.06804 120.042 6.67973 119.779 7.41377C119.516 8.13149 119.385 8.97156 119.385 9.93396C119.385 10.7822 119.533 11.5488 119.828 12.2339C120.124 12.9027 120.535 13.4736 121.061 13.9467C121.604 14.4197 122.236 14.7786 122.96 15.0233C123.699 15.268 124.513 15.3903 125.4 15.3903C125.91 15.3903 126.378 15.3577 126.806 15.2924C127.233 15.2109 127.595 15.0885 127.891 14.9254V12.7478H124.759V9.32226H131.515V16.9318Z" fill="#0364FF"/>
<path d="M141.074 0.734036C142.208 0.734036 143.219 0.880843 144.107 1.17446C144.994 1.45176 145.734 1.85956 146.326 2.39785C146.934 2.91983 147.394 3.556 147.706 4.30635C148.019 5.04038 148.175 5.87229 148.175 6.80207C148.175 7.53611 148.06 8.27015 147.83 9.00418C147.616 9.73822 147.254 10.407 146.745 11.0105C146.252 11.6141 145.594 12.1034 144.772 12.4786C143.951 12.8375 142.931 13.0169 141.715 13.0169H139.151V18.7424H135.576V0.734036H141.074ZM141.691 9.59141C142.233 9.59141 142.685 9.5017 143.047 9.32226C143.408 9.14283 143.688 8.91447 143.885 8.63716C144.098 8.35986 144.246 8.0744 144.329 7.78079C144.427 7.47086 144.477 7.1854 144.477 6.92441C144.477 6.72867 144.444 6.48399 144.378 6.19038C144.329 5.88045 144.214 5.57052 144.033 5.2606C143.852 4.95067 143.573 4.68968 143.194 4.47762C142.833 4.26557 142.34 4.15954 141.715 4.15954H139.151V9.59141H141.691ZM145.044 11.7935L149.531 18.7424H145.364L140.778 11.8914L145.044 11.7935Z" fill="#0364FF"/>
<path d="M150.432 18.7424L158.617 0.0244676H158.815L167 18.7424H162.858L157.631 5.57868L160.22 3.81699L153.958 18.7424H150.432ZM156.029 12.2339H161.477L162.735 15.219H154.919L156.029 12.2339Z" fill="#0364FF"/>
<path d="M45.5196 27.2793V29.0033H47.748V29.5041H45.5196V31.2639H47.9975V31.7933H44.7629V26.7499H47.9975V27.2793H45.5196Z" fill="#92919A"/>
<path d="M53.2848 31.7933L51.7548 29.733H50.9316V31.7933H50.1749V26.7499H52.104C52.7692 26.7499 53.2682 26.8882 53.6008 27.1648C53.9334 27.4367 54.0997 27.7991 54.0997 28.2522C54.0997 28.6623 53.9666 28.9938 53.7005 29.2466C53.4345 29.4946 53.0492 29.6496 52.5447 29.7115L54.1412 31.7933H53.2848ZM50.9316 29.2609H52.0375C52.8967 29.2609 53.3264 28.9366 53.3264 28.288C53.3264 27.6394 52.8967 27.3151 52.0375 27.3151H50.9316V29.2609Z" fill="#92919A"/>
<path d="M56.9851 29.7616V31.7933H56.2284V26.7499H58.091C58.7618 26.7499 59.2635 26.8858 59.5961 27.1577C59.9287 27.4248 60.095 27.792 60.095 28.2594C60.095 28.7315 59.9231 29.1011 59.5794 29.3682C59.2358 29.6305 58.7396 29.7616 58.091 29.7616H56.9851ZM58.0245 29.2179C58.4846 29.2179 58.8145 29.1345 59.014 28.9676C59.2191 28.8006 59.3217 28.5646 59.3217 28.2594C59.3217 27.9446 59.2191 27.7061 59.014 27.544C58.8145 27.3771 58.4846 27.2936 58.0245 27.2936H56.9851V29.2179H58.0245Z" fill="#92919A"/>
<path d="M68.7624 26.7499V27.2793H66.2013V29.0248H68.3716V29.5327H66.2013V31.7933H65.4447V26.7499H68.7624Z" fill="#92919A"/>
<path d="M73.5506 26.6855C74.0939 26.6855 74.5817 26.7952 75.0141 27.0146C75.452 27.234 75.7957 27.5416 76.0452 27.9374C76.2946 28.3285 76.4193 28.772 76.4193 29.268C76.4193 29.764 76.2946 30.2099 76.0452 30.6058C75.7957 30.9968 75.452 31.302 75.0141 31.5214C74.5817 31.7408 74.0939 31.8505 73.5506 31.8505C73.0073 31.8505 72.514 31.7408 72.0705 31.5214C71.6326 31.302 71.2889 30.9968 71.0394 30.6058C70.79 30.2099 70.6652 29.764 70.6652 29.268C70.6652 28.772 70.79 28.3285 71.0394 27.9374C71.2889 27.5416 71.6326 27.234 72.0705 27.0146C72.514 26.7952 73.0073 26.6855 73.5506 26.6855ZM73.5506 27.2936C73.1459 27.2936 72.7828 27.3747 72.4613 27.5368C72.1453 27.6942 71.8959 27.9231 71.7129 28.2236C71.5355 28.5193 71.4469 28.8674 71.4469 29.268C71.4469 29.6639 71.5355 30.012 71.7129 30.3125C71.8959 30.6129 72.1453 30.8442 72.4613 31.0064C72.7828 31.1637 73.1459 31.2424 73.5506 31.2424C73.9497 31.2424 74.3073 31.1614 74.6233 30.9992C74.9448 30.8371 75.1942 30.6081 75.3716 30.3125C75.5546 30.012 75.646 29.6639 75.646 29.268C75.646 28.8674 75.5546 28.5193 75.3716 28.2236C75.1942 27.9231 74.9448 27.6942 74.6233 27.5368C74.3073 27.3747 73.9497 27.2936 73.5506 27.2936Z" fill="#92919A"/>
<path d="M81.7578 31.7933L80.2278 29.733H79.4046V31.7933H78.6479V26.7499H80.5771C81.2423 26.7499 81.7412 26.8882 82.0738 27.1648C82.4064 27.4367 82.5727 27.7991 82.5727 28.2522C82.5727 28.6623 82.4397 28.9938 82.1736 29.2466C81.9075 29.4946 81.5222 29.6496 81.0178 29.7115L82.6143 31.7933H81.7578ZM79.4046 29.2609H80.5105C81.3698 29.2609 81.7994 28.9366 81.7994 28.288C81.7994 27.6394 81.3698 27.3151 80.5105 27.3151H79.4046V29.2609Z" fill="#92919A"/>
<path d="M88.7183 29.7616V31.7933H87.9616V26.7499H89.8242C90.495 26.7499 90.9967 26.8858 91.3293 27.1577C91.6619 27.4248 91.8282 27.792 91.8282 28.2594C91.8282 28.7315 91.6563 29.1011 91.3126 29.3682C90.9689 29.6305 90.4728 29.7616 89.8242 29.7616H88.7183ZM89.7577 29.2179C90.2178 29.2179 90.5476 29.1345 90.7472 28.9676C90.9523 28.8006 91.0549 28.5646 91.0549 28.2594C91.0549 27.9446 90.9523 27.7061 90.7472 27.544C90.5476 27.3771 90.2178 27.2936 89.7577 27.2936H88.7183V29.2179H89.7577Z" fill="#92919A"/>
<path d="M96.6035 26.6855C97.1468 26.6855 97.6346 26.7952 98.067 27.0146C98.5049 27.234 98.8486 27.5416 99.0981 27.9374C99.3475 28.3285 99.4722 28.772 99.4722 29.268C99.4722 29.764 99.3475 30.2099 99.0981 30.6058C98.8486 30.9968 98.5049 31.302 98.067 31.5214C97.6346 31.7408 97.1468 31.8505 96.6035 31.8505C96.0602 31.8505 95.5669 31.7408 95.1234 31.5214C94.6855 31.302 94.3418 30.9968 94.0923 30.6058C93.8429 30.2099 93.7181 29.764 93.7181 29.268C93.7181 28.772 93.8429 28.3285 94.0923 27.9374C94.3418 27.5416 94.6855 27.234 95.1234 27.0146C95.5669 26.7952 96.0602 26.6855 96.6035 26.6855ZM96.6035 27.2936C96.1988 27.2936 95.8357 27.3747 95.5142 27.5368C95.1982 27.6942 94.9488 27.9231 94.7658 28.2236C94.5885 28.5193 94.4998 28.8674 94.4998 29.268C94.4998 29.6639 94.5885 30.012 94.7658 30.3125C94.9488 30.6129 95.1982 30.8442 95.5142 31.0064C95.8357 31.1637 96.1988 31.2424 96.6035 31.2424C97.0026 31.2424 97.3602 31.1614 97.6762 30.9992C97.9977 30.8371 98.2471 30.6081 98.4245 30.3125C98.6075 30.012 98.6989 29.6639 98.6989 29.268C98.6989 28.8674 98.6075 28.5193 98.4245 28.2236C98.2471 27.9231 97.9977 27.6942 97.6762 27.5368C97.3602 27.3747 97.0026 27.2936 96.6035 27.2936Z" fill="#92919A"/>
<path d="M108.91 26.7499L107.422 31.7933H106.499L105.143 27.6728L103.788 31.7933H102.865L101.368 26.7499H102.208L103.331 31.035L104.719 26.7499H105.559L106.948 31.0207L108.079 26.7499H108.91Z" fill="#92919A"/>
<path d="M111.759 27.2793V29.0033H113.988V29.5041H111.759V31.2639H114.237V31.7933H111.002V26.7499H114.237V27.2793H111.759Z" fill="#92919A"/>
<path d="M119.524 31.7933L117.994 29.733H117.171V31.7933H116.415V26.7499H118.344C119.009 26.7499 119.508 26.8882 119.84 27.1648C120.173 27.4367 120.339 27.7991 120.339 28.2522C120.339 28.6623 120.206 28.9938 119.94 29.2466C119.674 29.4946 119.289 29.6496 118.784 29.7115L120.381 31.7933H119.524ZM117.171 29.2609H118.277C119.136 29.2609 119.566 28.9366 119.566 28.288C119.566 27.6394 119.136 27.3151 118.277 27.3151H117.171V29.2609Z" fill="#92919A"/>
<path d="M126.443 26.7499V29.7759C126.443 30.2719 126.571 30.6391 126.826 30.8776C127.081 31.1113 127.433 31.2281 127.882 31.2281C128.325 31.2281 128.672 31.1089 128.921 30.8704C129.171 30.632 129.295 30.2672 129.295 29.7759V26.7499H130.052V29.7759C130.052 30.4627 129.853 30.9801 129.453 31.3283C129.06 31.6717 128.53 31.8433 127.865 31.8433C127.206 31.8433 126.676 31.6717 126.277 31.3283C125.883 30.9801 125.687 30.4627 125.687 29.7759V26.7499H126.443Z" fill="#92919A"/>
<path d="M136.023 26.7499V27.2793H134.369V31.7933H133.612V27.2793H131.957V26.7499H136.023Z" fill="#92919A"/>
<path d="M138.738 26.7499V31.7933H137.981V26.7499H138.738Z" fill="#92919A"/>
<path d="M141.917 31.2854H143.996V31.7933H141.16V26.7499H141.917V31.2854Z" fill="#92919A"/>
<path d="M146.728 26.7499V31.7933H145.971V26.7499H146.728Z" fill="#92919A"/>
<path d="M152.743 26.7499V27.2793H151.088V31.7933H150.331V27.2793H148.676V26.7499H152.743Z" fill="#92919A"/>
<path d="M155.457 26.7499V31.7933H154.7V26.7499H155.457Z" fill="#92919A"/>
<path d="M158.636 27.2793V29.0033H160.865V29.5041H158.636V31.2639H161.114V31.7933H157.879V26.7499H161.114V27.2793H158.636Z" fill="#92919A"/>
<path d="M167 30.4841C167 30.7226 166.933 30.9444 166.8 31.1494C166.667 31.3545 166.465 31.5214 166.193 31.6502C165.922 31.779 165.586 31.8433 165.187 31.8433C164.799 31.8433 164.453 31.7837 164.148 31.6645C163.849 31.5405 163.607 31.3736 163.424 31.1637C163.247 30.9491 163.145 30.7059 163.117 30.4341H163.923C163.94 30.5771 163.995 30.7178 164.09 30.8561C164.189 30.9897 164.328 31.1017 164.505 31.1924C164.688 31.2782 164.907 31.3211 165.162 31.3211C165.495 31.3211 165.75 31.2448 165.927 31.0922C166.105 30.9396 166.193 30.7441 166.193 30.5056C166.193 30.3005 166.13 30.1336 166.002 30.0048C165.88 29.8761 165.728 29.7759 165.545 29.7044C165.362 29.6281 165.112 29.547 164.796 29.4612C164.425 29.3563 164.126 29.2585 163.898 29.1679C163.677 29.0725 163.485 28.9318 163.325 28.7458C163.169 28.5598 163.092 28.3142 163.092 28.009C163.092 27.7467 163.164 27.5154 163.308 27.3151C163.458 27.1148 163.668 26.9598 163.94 26.8501C164.217 26.7404 164.541 26.6855 164.913 26.6855C165.489 26.6855 165.947 26.8072 166.285 27.0504C166.623 27.2888 166.82 27.5941 166.875 27.9661H166.06C166.016 27.7658 165.897 27.5893 165.703 27.4367C165.509 27.2841 165.245 27.2078 164.913 27.2078C164.608 27.2078 164.364 27.2769 164.181 27.4152C163.998 27.5488 163.907 27.7395 163.907 27.9875C163.907 28.183 163.965 28.3428 164.081 28.4668C164.203 28.586 164.353 28.6814 164.53 28.753C164.708 28.8197 164.952 28.896 165.262 28.9819C165.639 29.0868 165.941 29.1869 166.168 29.2823C166.401 29.3777 166.598 29.5232 166.759 29.7187C166.92 29.9095 167 30.1646 167 30.4841Z" fill="#92919A"/>
</svg>
